<svg width="1827" height="1818" xmlns="http://www.w3.org/2000/svg" xmlns:xlink="http://www.w3.org/1999/xlink" overflow="hidden"><defs><clipPath id="clip0"><rect x="677" y="206" width="1827" height="1818"/></clipPath></defs><g clip-path="url(#clip0)" transform="translate(-677 -206)"><path d="M847 1092C847 691.594 1171.59 367 1572 367 1972.41 367 2297 691.594 2297 1092 2297 1492.41 1972.41 1817 1572 1817 1171.59 1817 847 1492.41 847 1092Z" stroke="#001E6C" stroke-width="91.6667" stroke-miterlimit="8" fill="#E8630A" fill-rule="evenodd"/><path d="M0 0 335.558 327.237" stroke="#001E6C" stroke-width="91.6667" stroke-miterlimit="8" fill="none" fill-rule="evenodd" transform="matrix(-1 0 0 1 1058.56 1604)"/><path d="M686 1092 2457.64 1092" stroke="#FCD900" stroke-width="91.6667" stroke-miterlimit="8" fill="none" fill-rule="evenodd"/><path d="M1572 206 1572 1977.64" stroke="#FCD900" stroke-width="91.6667" stroke-miterlimit="8" fill="none" fill-rule="evenodd"/><path d="M1195 1091.5C1195 883.565 1363.56 715 1571.5 715 1779.44 715 1948 883.565 1948 1091.5 1948 1299.44 1779.44 1468 1571.5 1468 1363.56 1468 1195 1299.44 1195 1091.5Z" stroke="#FCD900" stroke-width="91.6667" stroke-miterlimit="8" fill="#E8630A" fill-rule="evenodd"/></g></svg>